<svg width="33" height="36" viewBox="0 0 33 36" fill="none" xmlns="http://www.w3.org/2000/svg">
<path d="M24.5 9.25H29.62C29.9297 9.25031 30.2282 9.36554 30.4578 9.57339C30.6873 9.78123 30.8315 10.0669 30.8625 10.375L31.625 18H29.11L28.485 11.75H24.5V15.5C24.5 15.8315 24.3683 16.1495 24.1339 16.3839C23.8995 16.6183 23.5815 16.75 23.25 16.75C22.9185 16.75 22.6005 16.6183 22.3661 16.3839C22.1317 16.1495 22 15.8315 22 15.5V11.75H12V15.5C12 15.8315 11.8683 16.1495 11.6339 16.3839C11.3995 16.6183 11.0815 16.75 10.75 16.75C10.4185 16.75 10.1005 16.6183 9.86612 16.3839C9.6317 16.1495 9.50001 15.8315 9.50001 15.5V11.75H5.51251L3.51251 31.75H17V34.25H2.13001C1.95542 34.2498 1.7828 34.2131 1.62327 34.1421C1.46375 34.0712 1.32086 33.9676 1.2038 33.8381C1.08675 33.7085 0.998127 33.5559 0.94365 33.39C0.889173 33.2242 0.870048 33.0487 0.887507 32.875L3.13751 10.375C3.16847 10.0669 3.31271 9.78123 3.54226 9.57339C3.77181 9.36554 4.07034 9.25031 4.38001 9.25H9.50001V8.3775C9.50001 4.0425 12.84 0.5 17 0.5C21.16 0.5 24.5 4.0425 24.5 8.3775V9.2525V9.25ZM22 9.25V8.3775C22 5.3925 19.745 3 17 3C14.255 3 12 5.3925 12 8.3775V9.2525H22V9.25ZM29.8675 28.15L27 25.285V34.25C27 34.5815 26.8683 34.8995 26.6339 35.1339C26.3995 35.3683 26.0815 35.5 25.75 35.5C25.4185 35.5 25.1005 35.3683 24.8661 35.1339C24.6317 34.8995 24.5 34.5815 24.5 34.25V25.285L21.635 28.15C21.5197 28.2694 21.3818 28.3646 21.2293 28.4301C21.0768 28.4956 20.9127 28.5301 20.7468 28.5316C20.5808 28.533 20.4162 28.5014 20.2626 28.4385C20.1089 28.3757 19.9694 28.2829 19.852 28.1655C19.7346 28.0481 19.6418 27.9086 19.579 27.7549C19.5161 27.6013 19.4845 27.4367 19.4859 27.2707C19.4874 27.1048 19.5219 26.9408 19.5874 26.7882C19.6529 26.6357 19.7481 26.4978 19.8675 26.3825L24.8675 21.3825C25.1019 21.1482 25.4198 21.0165 25.7513 21.0165C26.0827 21.0165 26.4006 21.1482 26.635 21.3825L31.635 26.3825C31.7544 26.4978 31.8496 26.6357 31.9151 26.7882C31.9806 26.9408 32.0151 27.1048 32.0166 27.2707C32.018 27.4367 31.9864 27.6013 31.9235 27.7549C31.8607 27.9086 31.7679 28.0481 31.6505 28.1655C31.5331 28.2829 31.3936 28.3757 31.2399 28.4385C31.0863 28.5014 30.9217 28.533 30.7558 28.5316C30.5898 28.5301 30.4258 28.4956 30.2733 28.4301C30.1207 28.3646 29.9828 28.2694 29.8675 28.15Z" fill="white"/>
</svg>
